<?xml version="1.0" encoding="UTF-8"?>
<svg width="201px" height="198px" viewBox="0 0 201 198" version="1.1" xmlns="http://www.w3.org/2000/svg" xmlns:xlink="http://www.w3.org/1999/xlink">
    <!-- Generator: Sketch 59.1 (86144) - https://sketch.com -->
    <title>wwd-puzzle</title>
    <desc>Created with Sketch.</desc>
    <defs>
        <filter x="-95.0%" y="-97.5%" width="290.1%" height="294.9%" filterUnits="objectBoundingBox" id="filter-1">
            <feOffset dx="0" dy="20" in="SourceAlpha" result="shadowOffsetOuter1"></feOffset>
            <feGaussianBlur stdDeviation="20" in="shadowOffsetOuter1" result="shadowBlurOuter1"></feGaussianBlur>
            <feColorMatrix values="0 0 0 0 0.108462968   0 0 0 0 0.302973681   0 0 0 0 0.521257926  0 0 0 0.2 0" type="matrix" in="shadowBlurOuter1" result="shadowMatrixOuter1"></feColorMatrix>
            <feMerge>
                <feMergeNode in="shadowMatrixOuter1"></feMergeNode>
                <feMergeNode in="SourceGraphic"></feMergeNode>
            </feMerge>
        </filter>
    </defs>
    <g id="Page-2" stroke="none" stroke-width="1" fill="none" fill-rule="evenodd">
        <g id="what_we_do" transform="translate(-960.000000, -3941.000000)">
            <g id="wwd-puzzle" filter="url(#filter-1)" transform="translate(1000.000000, 3961.000000)">
                <rect id="Rectangle" fill="#FCA500" x="0" y="0" width="121" height="118" rx="10"></rect>
                <g id="plan" transform="translate(26.000000, 28.000000)" fill="#FFFFFF" fill-rule="nonzero">
                    <path d="M61.2889862,45.011444 L70,36.3009644 L61.2889862,27.5899505 L62.6924896,26.1864471 C65.1208496,23.7580872 65.1208496,19.8071289 62.6930237,17.3787689 C61.5164948,16.2027741 59.9522399,15.5549622 58.2886505,15.5549622 C56.6255951,15.5549622 55.0613403,16.2027741 53.8853454,17.3787689 L52.4818421,18.7822723 L43.7708283,10.0712585 L41.2004089,12.6422119 L41.2004089,16.7053223 C45.7473755,17.7889251 49.1391754,21.8856812 49.1391754,26.7594909 C49.1391754,31.6338348 45.7473755,35.7305908 41.2004089,36.8136597 L41.2004089,49.4126129 L33.6595153,49.4126129 L32.1561432,50.915985 L43.7708283,62.5301361 L52.4818421,53.8191224 L53.6914826,55.0292969 C56.1198425,57.4576569 60.0708008,57.4576569 62.4991608,55.0292969 C64.9275208,52.6009369 64.9275208,48.6499787 62.4991608,46.2216187 L61.2889862,45.011444 Z" id="Path"></path>
                    <path d="M37.0940399,45.306778 L37.0940399,32.9876709 L38.8046265,32.9876709 C42.239151,32.9876709 45.0328063,30.1940155 45.0328063,26.7594909 C45.0328063,23.3255005 42.239151,20.5318451 38.8046265,20.5318451 L37.0940399,20.5318451 L37.0940399,8.21273797 L24.7749329,8.21273797 L24.7749329,6.22818 C24.7749329,2.79365543 21.9812775,-5.86197757e-14 18.5467529,-5.86197757e-14 C15.1127624,-5.86197757e-14 12.3191071,2.79365543 12.3191071,6.22818 L12.3191071,8.21273797 L1.15463195e-13,8.21273797 L1.15463195e-13,20.5318451 L1.71112061,20.5318451 C4.72427375,20.5318451 7.24395752,22.6824951 7.81646729,25.5295563 C8.06480404,25.8766937 8.21273797,26.3007355 8.21273797,26.7594909 C8.21273797,27.2182464 8.06480404,27.6422882 7.81646729,27.9899596 C7.24395752,30.8364868 4.72427375,32.9876709 1.71112061,32.9876709 L1.15463195e-13,32.9876709 L1.15463195e-13,45.306778 L12.3191071,45.306778 L12.3191071,43.3216859 C12.3191071,39.8876953 15.1127624,37.0940399 18.5467529,37.0940399 C21.9812775,37.0940399 24.7749329,39.8876953 24.7749329,43.3216859 L24.7749329,45.306778 L37.0940399,45.306778 Z" id="Path"></path>
                </g>
            </g>
        </g>
    </g>
</svg>