<?xml version="1.0" encoding="UTF-8"?>
<svg width="44px" height="44px" viewBox="0 0 44 44" version="1.1" xmlns="http://www.w3.org/2000/svg" xmlns:xlink="http://www.w3.org/1999/xlink">
    <!-- Generator: Sketch 59.1 (86144) - https://sketch.com -->
    <title>icons/44/ig-icon-unactived</title>
    <desc>Created with Sketch.</desc>
    <defs>
        <circle id="path-1" cx="22" cy="22" r="22"></circle>
    </defs>
    <g id="icons/44/ig-icon-unactived" stroke="none" stroke-width="1" fill="none" fill-rule="evenodd">
        <g id="ig-icon-unactived">
            <g id="Bitmap">
                <mask id="mask-2" fill="white">
                    <use xlink:href="#path-1"></use>
                </mask>
                <use id="Mask" fill="#A2ABCB" xlink:href="#path-1"></use>
            </g>
            <path d="M26.1279683,12.0659159 C27.7294798,12.1440384 29.1487055,12.5086101 30.3205432,13.6804478 C31.4923809,14.8522855 31.8569526,16.2715112 31.9350751,17.8730227 C31.993667,18.908146 32.000991,19.9359453 32.000991,20.9674066 L31.9969221,24.0642319 C31.9904119,24.751059 31.9741364,25.4378861 31.9350751,26.1279683 C31.8569526,27.7294798 31.4923809,29.1487055 30.3205432,30.3205432 C29.1487055,31.4923809 27.7294798,31.8569526 26.1279683,31.9350751 C25.4378861,31.9741364 24.751059,31.9904119 24.0642319,31.9969221 L22.0004955,32.0001772 C20.6203311,32.0001772 19.2531871,32.0131976 17.8730227,31.9350751 C16.2715112,31.8569526 14.8522855,31.4923809 13.6804478,30.3205432 C12.5086101,29.1487055 12.1440384,27.7294798 12.0659159,26.1279683 C12.0268546,25.4378861 12.0105791,24.751059 12.0040689,24.0642319 L12.0008138,22.0004955 C12.0008138,20.6203311 11.9877934,19.2531871 12.0659159,17.8730227 C12.1440384,16.2715112 12.5086101,14.8522855 13.6804478,13.6804478 C14.8522855,12.5086101 16.2715112,12.1440384 17.8730227,12.0659159 C18.5631049,12.0268546 19.249932,12.0105791 19.9367591,12.0040689 L22.0004955,12.0008138 C23.3806599,12.0008138 24.7478039,11.9877934 26.1279683,12.0659159 Z M22.0004955,13.7976316 C20.5422086,13.7976316 17.417308,13.6804478 16.1022457,14.2012646 C15.6465311,14.3835504 15.3080002,14.6048976 14.9564489,14.9564489 C14.6048976,15.3080002 14.3835504,15.6465311 14.2012646,16.1022457 C13.8292526,17.041576 13.7827511,18.904293 13.7865471,20.4234684 L13.7865471,20.4234684 L13.7976316,22.0004955 C13.7976316,23.4587824 13.6804478,26.583683 14.2012646,27.8987453 C14.3835504,28.3544599 14.6048976,28.6929908 14.9564489,29.0445421 C15.3080002,29.3960934 15.6465311,29.6174406 16.1022457,29.7997264 C17.041576,30.1717384 18.904293,30.2182399 20.4234684,30.2144439 L20.4234684,30.2144439 L22.0004955,30.2033594 C23.4587824,30.2033594 26.583683,30.3205432 27.8987453,29.7997264 C28.3544599,29.6174406 28.6929908,29.3960934 29.0445421,29.0445421 C29.3960934,28.6929908 29.6174406,28.3544599 29.7997264,27.8987453 C30.1717384,26.959415 30.2182399,25.096698 30.2144439,23.5775226 L30.2144439,23.5775226 L30.2033594,22.0004955 C30.2033594,20.5422086 30.3205432,17.417308 29.7997264,16.1022457 C29.6174406,15.6465311 29.3960934,15.3080002 29.0445421,14.9564489 C28.6929908,14.6048976 28.3544599,14.3835504 27.8987453,14.2012646 C26.959415,13.8292526 25.096698,13.7827511 23.5775226,13.7865471 L23.5775226,13.7865471 Z M22.0004955,16.8704504 C24.8389468,16.8704504 27.1305406,19.1620442 27.1305406,22.0004955 C27.1305406,24.8389468 24.8389468,27.1305406 22.0004955,27.1305406 C19.1620442,27.1305406 16.8704504,24.8389468 16.8704504,22.0004955 C16.8704504,19.1620442 19.1620442,16.8704504 22.0004955,16.8704504 Z M22.0004915,18.6672683 C20.1646164,18.6672683 18.6672683,20.1646164 18.6672683,22.0004915 C18.6672683,23.8363746 20.1646164,25.3337148 22.0004915,25.3337148 C23.8363746,25.3337148 25.3337148,23.8363746 25.3337148,22.0004915 C25.3337148,20.1646164 23.8363746,18.6672683 22.0004915,18.6672683 Z M27.3388673,15.4642452 C28.0029086,15.4642452 28.5367458,15.9980824 28.5367458,16.6621237 C28.5367458,17.3261651 28.0029086,17.8600023 27.3388673,17.8600023 C26.6748259,17.8600023 26.1409887,17.3261651 26.1409887,16.6621237 C26.1409887,15.9980824 26.6748259,15.4642452 27.3388673,15.4642452 Z" id="" fill="#FFFFFF" fill-rule="nonzero"></path>
        </g>
    </g>
</svg>