<?xml version="1.0" encoding="UTF-8"?>
<svg width="44px" height="44px" viewBox="0 0 44 44" version="1.1" xmlns="http://www.w3.org/2000/svg" xmlns:xlink="http://www.w3.org/1999/xlink">
    <!-- Generator: Sketch 59.1 (86144) - https://sketch.com -->
    <title>icons/44/tw-icon</title>
    <desc>Created with Sketch.</desc>
    <g id="icons/44/tw-icon" stroke="none" stroke-width="1" fill="none" fill-rule="evenodd">
        <g id="tw-icon">
            <circle id="Oval-Copy-8" fill="#94D8FF" cx="22" cy="22" r="22"></circle>
            <path d="M32,16.01875 C31.4416244,16.86875 30.7436548,17.6257812 29.9441624,18.2367188 C29.9568528,18.4226562 29.9568528,18.6085938 29.9568528,18.7945312 C29.9568528,24.465625 25.8324873,31 18.2944162,31 C15.9720812,31 13.8147208,30.2960938 12,29.0742188 C12.3299492,29.1140625 12.6472081,29.1273438 12.9898477,29.1273438 C14.9060914,29.1273438 16.6700508,28.45 18.0786802,27.2945312 C16.2766497,27.2546875 14.7664975,26.0195312 14.2461929,24.3195313 C14.5,24.359375 14.7538071,24.3859375 15.0203046,24.3859375 C15.3883249,24.3859375 15.7563452,24.3328125 16.0989848,24.2398437 C14.310249,23.8603795 12.9474018,22.2762667 12.8216629,20.3250229 L12.8121818,19.9765625 L12.8121818,19.9765625 C13.357868,20.2953125 13.9923858,20.4945313 14.6649746,20.5210937 C13.5609137,19.7507812 12.8375635,18.4359375 12.8375635,16.9484375 C12.8375635,16.1515625 13.0406091,15.4210938 13.3959391,14.7835937 C15.4137056,17.3867188 18.4467005,19.0867187 21.8477157,19.2726563 C21.784264,18.9539062 21.7461813,18.621875 21.7461813,18.2898437 C21.7461813,15.9257812 23.5736041,14 25.8451777,14 C27.0253807,14 28.0913706,14.5179687 28.8401015,15.3546875 C29.7664975,15.16875 30.6548223,14.8101563 31.4416244,14.31875 C31.1370558,15.3148437 30.4898477,16.1515625 29.6395939,16.6828125 C30.464467,16.5898438 31.2639594,16.3507813 32,16.01875 Z" id="" fill="#FFFFFF" fill-rule="nonzero"></path>
        </g>
    </g>
</svg>