<?xml version="1.0" standalone="no"?>
<!DOCTYPE svg PUBLIC "-//W3C//DTD SVG 20010904//EN"
 "http://www.w3.org/TR/2001/REC-SVG-20010904/DTD/svg10.dtd">
<svg version="1.0" xmlns="http://www.w3.org/2000/svg"
 width="201.000000pt" height="201.000000pt" viewBox="0 0 201.000000 201.000000"
 preserveAspectRatio="xMidYMid meet">
<metadata>
Created by potrace 1.11, written by Peter Selinger 2001-2013
</metadata>
<g transform="translate(0.000000,201.000000) scale(0.100000,-0.100000)"
fill="#000000" stroke="none">
<path d="M258 1993 c-20 -25 -62 -158 -63 -208 -1 -22 3 -58 10 -80 9 -33 8
-50 -7 -98 -22 -72 -23 -151 -2 -212 11 -35 13 -54 5 -78 -31 -98 -17 -180 43
-243 40 -42 41 -44 42 -117 1 -82 13 -105 83 -160 30 -24 35 -34 38 -79 2 -28
12 -69 22 -92 22 -49 68 -106 86 -106 7 0 15 -3 17 -7 2 -5 19 -16 39 -26 30
-15 35 -23 35 -50 -1 -18 -7 -37 -15 -43 -10 -8 -14 -50 -15 -183 0 -95 2
-181 6 -192 7 -18 21 -19 413 -19 356 0 406 2 412 15 3 11 -17 39 -61 85 -96
99 -116 161 -80 250 24 60 51 70 193 70 l120 0 3 -83 c3 -74 5 -82 23 -82 20
0 20 7 20 285 0 255 -2 289 -18 321 -42 85 -133 147 -261 178 l-71 18 -50 101
c-27 56 -53 104 -57 108 -13 12 -37 -17 -84 -105 -26 -47 -49 -88 -52 -91 -2
-3 -11 5 -19 18 -31 45 -239 212 -265 212 -26 0 -58 27 -58 50 0 7 -32 46 -70
87 -141 148 -195 234 -266 427 -30 82 -58 142 -66 144 -8 1 -21 -5 -30 -15z"/>
</g>
</svg>
