<?xml version="1.0" encoding="UTF-8"?>
<svg width="18px" height="18px" viewBox="0 0 18 18" version="1.1" xmlns="http://www.w3.org/2000/svg" xmlns:xlink="http://www.w3.org/1999/xlink">
    <!-- Generator: Sketch 59.1 (86144) - https://sketch.com -->
    <title>icons/18/check</title>
    <desc>Created with Sketch.</desc>
    <g id="icons/18/check" stroke="none" stroke-width="1" fill="none" fill-rule="evenodd">
        <g id="correct" fill-rule="nonzero">
            <path d="M9,0 C4.03720095,0 0,4.03720095 0,9 C0,13.9627991 4.03720095,18 9,18 C13.9627991,18 18,13.9627991 18,9 C18,4.03720095 13.9627991,0 9,0 Z" id="Path" fill="#48CBB6"></path>
            <path d="M13.2754321,6.6653469 L8.29686238,11.4827305 C8.14750109,11.6272602 7.9514381,11.7 7.75537508,11.7 C7.55931206,11.7 7.36324908,11.6272602 7.21388779,11.4827305 L4.72467305,9.07403871 C4.42510898,8.78430089 4.42510898,8.31583479 4.72467305,8.02609697 C5.02409685,7.73622342 5.50808357,7.73622342 5.80764764,8.02609697 L7.75537508,9.91081791 L12.1924575,5.61740517 C12.4918813,5.32753161 12.9758681,5.32753161 13.2754321,5.61740517 C13.574856,5.90714299 13.574856,6.37547335 13.2754321,6.6653469 Z" id="Path" fill="#FAFAFA"></path>
        </g>
    </g>
</svg>