<?xml version="1.0" encoding="UTF-8"?>
<svg width="72px" height="72px" viewBox="0 0 72 72" version="1.1" xmlns="http://www.w3.org/2000/svg" xmlns:xlink="http://www.w3.org/1999/xlink">
    <!-- Generator: Sketch 59.1 (86144) - https://sketch.com -->
    <title>illustrations/72/digi_ads</title>
    <desc>Created with Sketch.</desc>
    <defs>
        <linearGradient x1="86.6788614%" y1="108.528253%" x2="62.4749135%" y2="22.321956%" id="linearGradient-1">
            <stop stop-color="#FF5023" offset="0%"></stop>
            <stop stop-color="#FBBA3F" offset="100%"></stop>
        </linearGradient>
        <linearGradient x1="7.44300079%" y1="40.9872199%" x2="157.661665%" y2="69.1877148%" id="linearGradient-2">
            <stop stop-color="#0EB5A0" offset="0%"></stop>
            <stop stop-color="#4952A1" offset="100%"></stop>
        </linearGradient>
        <linearGradient x1="42.9837148%" y1="28.5191417%" x2="90.2266308%" y2="115.836612%" id="linearGradient-3">
            <stop stop-color="#0EB5A0" offset="0%"></stop>
            <stop stop-color="#4952A1" offset="100%"></stop>
        </linearGradient>
        <linearGradient x1="23.1434781%" y1="-14.8658526%" x2="113.92717%" y2="192.382186%" id="linearGradient-4">
            <stop stop-color="#0EB5A0" offset="0%"></stop>
            <stop stop-color="#4952A1" offset="100%"></stop>
        </linearGradient>
    </defs>
    <g id="illustrations/72/digi_ads" stroke="none" stroke-width="1" fill="none" fill-rule="evenodd">
        <rect id="Rectangle" x="0" y="0" width="72" height="72"></rect>
        <g id="Group" transform="translate(6.000000, 7.000000)">
            <rect id="Rectangle" fill="#FCBB40" x="0" y="0" width="51" height="55" rx="4"></rect>
            <path d="M35.4001351,0 L47,0 C49.209139,-4.05812251e-16 51,1.790861 51,4 L51,50.9643649 C51,53.1735039 49.209139,54.9643649 47,54.9643649 C46.9881744,54.9643649 46.9763488,54.9643125 46.9645237,54.9642076 L3.89298233,54.5821875 L3.89298233,54.5821875 L31.8706298,2.11782238 C32.5657741,0.81427097 33.922816,1.15955754e-15 35.4001351,0 Z" id="Rectangle" fill="url(#linearGradient-1)"></path>
            <path d="M4,0 L47,0 C49.209139,-4.05812251e-16 51,1.790861 51,4 L51,10 L51,10 L0,10 L0,4 C-2.705415e-16,1.790861 1.790861,4.05812251e-16 4,0 Z" id="Rectangle" fill="#0FB5A0"></path>
            <path d="M35.3540345,0 L47,0 C49.209139,-2.36792184e-15 51,1.790861 51,4 L51,10 L51,10 L27.4464912,10 L31.8571016,2.05797522 C32.56249,0.787808297 33.901142,1.15507045e-15 35.3540345,0 Z" id="Rectangle" fill="url(#linearGradient-2)"></path>
        </g>
        <path d="M7,16 L56,16 L56,11 C56,9.34314575 54.6568542,8 53,8 L10,8 C8.34314575,8 7,9.34314575 7,11 L7,16 Z" id="Rectangle" stroke="#4952A2" stroke-width="2"></path>
        <rect id="Rectangle" stroke="#4952A2" stroke-width="2" x="7" y="8" width="49" height="53" rx="4"></rect>
        <line x1="13" y1="23.5" x2="48.283234" y2="23.5" id="Path-7" stroke="#4952A2" stroke-width="2" stroke-linecap="round"></line>
        <line x1="13" y1="30.5" x2="40.2963417" y2="30.5" id="Path-7-Copy" stroke="#4952A2" stroke-width="2" stroke-linecap="round"></line>
        <rect id="Rectangle" stroke="#4952A2" stroke-width="2" fill="url(#linearGradient-3)" x="41" y="41" width="25" height="25" rx="4"></rect>
        <circle id="Oval" stroke="#4952A2" cx="13" cy="12" r="1"></circle>
        <circle id="Oval-Copy" stroke="#4952A2" cx="17" cy="12" r="1"></circle>
        <circle id="Oval-Copy-2" stroke="#4952A2" cx="21" cy="12" r="1"></circle>
        <path d="M53.64,56.86 C53.7040003,57.0040007 53.736,57.1319994 53.736,57.244 C53.736,57.468 53.6460009,57.6579992 53.466,57.814 C53.2859991,57.9700008 53.0800012,58.048 52.848,58.048 C52.6959992,58.048 52.5520007,58.0060004 52.416,57.922 C52.2799993,57.8379996 52.1760004,57.7120008 52.104,57.544 L51.468,56.128 L47.4,56.128 L46.764,57.544 C46.6919996,57.7120008 46.5900007,57.8379996 46.458,57.922 C46.3259993,58.0060004 46.1800008,58.048 46.02,58.048 C45.7879988,58.048 45.5800009,57.9700008 45.396,57.814 C45.2119991,57.6579992 45.12,57.468 45.12,57.244 C45.12,57.1319994 45.1519997,57.0040007 45.216,56.86 L48.456,50.056 C48.5440004,49.863999 48.6759991,49.7180005 48.852,49.618 C49.0280009,49.5179995 49.215999,49.468 49.416,49.468 C49.624001,49.468 49.8159991,49.5199995 49.992,49.624 C50.1680009,49.7280005 50.3039995,49.8719991 50.4,50.056 L53.64,56.86 Z M48.036,54.712 L50.832,54.712 L49.44,51.592 L48.036,54.712 Z M55.644,58 C55.3639986,58 55.1480008,57.9240008 54.996,57.772 C54.8439992,57.6199992 54.768,57.4040014 54.768,57.124 L54.768,50.416 C54.768,50.1359986 54.8439992,49.9200008 54.996,49.768 C55.1480008,49.6159992 55.3639986,49.54 55.644,49.54 L58.056,49.54 C58.9760046,49.54 59.768,49.7079983 60.432,50.044 C61.0960033,50.3800017 61.6039982,50.8639968 61.956,51.496 C62.3080018,52.1280032 62.484,52.8839956 62.484,53.764 C62.484,54.6440044 62.3100017,55.4019968 61.962,56.038 C61.6139983,56.6740032 61.1080033,57.1599983 60.444,57.496 C59.7799967,57.8320017 58.9840046,58 58.056,58 L55.644,58 Z" id="AD" fill="#FFFFFF" fill-rule="nonzero"></path>
        <path d="M57.924,56.488 L56.64,56.488 L56.64,51.052 L57.924,51.052 C59.724009,51.052 60.624,51.955991 60.624,53.764 C60.624,55.5800091 59.724009,56.488 57.924,56.488 Z" id="Path" fill="url(#linearGradient-4)" fill-rule="nonzero"></path>
        <line x1="13" y1="37.5" x2="33.4464912" y2="37.5" id="Path-7-Copy-2" stroke="#4952A2" stroke-width="2" stroke-linecap="round"></line>
        <line x1="13" y1="45" x2="28.6951655" y2="45" id="Path-7-Copy-3" stroke="#4952A2" stroke-width="2" stroke-linecap="round"></line>
        <line x1="13" y1="52" x2="28.6951655" y2="52" id="Path-7-Copy-4" stroke="#4952A2" stroke-width="2" stroke-linecap="round"></line>
    </g>
</svg>