<?xml version="1.0" encoding="UTF-8"?>
<svg width="72px" height="72px" viewBox="0 0 72 72" version="1.1" xmlns="http://www.w3.org/2000/svg" xmlns:xlink="http://www.w3.org/1999/xlink">
    <!-- Generator: Sketch 59.1 (86144) - https://sketch.com -->
    <title>illustrations/72/digital_marketing</title>
    <desc>Created with Sketch.</desc>
    <defs>
        <linearGradient x1="87.1904227%" y1="66.3845976%" x2="40.9831714%" y2="28.7260359%" id="linearGradient-1">
            <stop stop-color="#FF5023" offset="0%"></stop>
            <stop stop-color="#FBBA3F" offset="100%"></stop>
        </linearGradient>
        <linearGradient x1="28.8507914%" y1="54.8937999%" x2="88.803891%" y2="94.8066574%" id="linearGradient-2">
            <stop stop-color="#0EB5A0" offset="0%"></stop>
            <stop stop-color="#4952A1" offset="100%"></stop>
        </linearGradient>
        <linearGradient x1="68.7572665%" y1="100%" x2="37.2582844%" y2="19.5005049%" id="linearGradient-3">
            <stop stop-color="#FF5023" offset="0%"></stop>
            <stop stop-color="#FBBA3F" offset="100%"></stop>
        </linearGradient>
        <linearGradient x1="0%" y1="100%" x2="68.1606336%" y2="22.5863971%" id="linearGradient-4">
            <stop stop-color="#FF5023" offset="0%"></stop>
            <stop stop-color="#FBBA3F" offset="100%"></stop>
        </linearGradient>
    </defs>
    <g id="illustrations/72/digital_marketing" stroke="none" stroke-width="1" fill="none" fill-rule="evenodd">
        <rect id="Rectangle" x="0" y="0" width="72" height="72"></rect>
        <g id="video" transform="translate(10.000000, 22.000000)">
            <path d="M48.2902344,0.0840234375 C50.2133984,0.0840234375 51.7724609,1.64390625 51.7724609,3.56800781 L51.7723438,36.5723438 L47.7026563,36.5720234 L47.703125,38.4935156 L30.3471875,38.4935156 L24.6851563,39.5821875 L19.2229297,38.4935156 L4.296875,38.4935156 L4.29665625,36.5720234 L0.22765625,36.5723438 L0.22765625,3.56800781 C0.22765625,1.64378906 1.78671875,0.0840234375 3.70976563,0.0840234375 L48.2902344,0.0840234375 Z" id="Combined-Shape" fill="#FCBB40" fill-rule="nonzero"></path>
            <path d="M33.3535445,1 L9,40 L48.061556,40 C49.6846905,40 51,38.6936568 51,37.0817962 L51,37.0817962 L51,3.91820375 C51,2.30655228 49.6846905,1 48.061556,1 L48.061556,1 L33.3535445,1 Z" id="Fill-11" fill="url(#linearGradient-1)"></path>
            <path d="M23.5000014,15.8660294 L30.500007,19.9074997 C30.9782992,20.1836428 31.1421733,20.7952335 30.8660302,21.2735257 C30.7782622,21.4255438 30.6520251,21.5517808 30.500007,21.6395488 L23.5000014,25.6810191 C23.0217092,25.9571622 22.4101186,25.793288 22.1339754,25.3149959 C22.0462066,25.1629763 22,24.9905317 22,24.8149945 L22,16.732054 C22,16.1797693 22.4477153,15.732054 23,15.732054 C23.1755372,15.732054 23.3479819,15.7782606 23.5000014,15.8660294 Z" id="Path" stroke="#4952A2" stroke-width="2" fill="#2097A0" fill-rule="nonzero"></path>
        </g>
        <rect id="Rectangle" stroke="#4952A2" stroke-width="2" x="11" y="23" width="50" height="38" rx="4"></rect>
        <path d="M8.53675781,62 L63.4618359,62 C65.9992969,62 65.9902734,59.3662592 65.9984766,57.7095714 C65.9942578,57.3169122 65.7257812,57 65.394375,57 L42.1746094,57 C41.840625,57 41.5698047,57.3217856 41.5698047,57.7186221 L41.5698047,57.8291793 C41.5698047,58.6319029 41.1854659,58.5723438 40.5098799,58.5723438 L29.3856221,58.5723438 C28.7100362,58.5723438 27.9991406,58.6319029 27.9991406,57.8291793 L27.9991406,57.7186221 C27.9991406,57.3217856 27.7283203,57 27.3943359,57 L6.60410156,57 C6.27269531,57 6.00421875,57.3169122 6,57.7095714 C6.00832031,59.3662592 5.99929687,62 8.53675781,62 Z" id="Path" stroke="#4952A2" stroke-width="2" fill="#0FB5A0" fill-rule="nonzero"></path>
        <g id="Group-10" transform="translate(38.000000, 5.000000)">
            <g id="Group-9">
                <path d="M24.0264605,10.9878061 C25.4212309,9.59303571 25.4212309,7.33170918 24.0264605,5.93693878 C22.6316901,4.54216837 20.3703635,4.54216837 18.9755931,5.93693878 L24.0264605,10.9878061 Z" id="Path" stroke="#4952A2" stroke-width="2" fill="#0FB5A0" fill-rule="nonzero"></path>
                <path d="M12.3833992,24.4196173 L17.2241135,29.2602551 L14.2844962,32.1998724 L9.44202168,27.3574745 L12.3833992,24.4196173 Z M15.2338954,2.502341 C15.5872393,2.65278824 15.9084104,2.86967957 16.1799673,3.14123644 L26.8237458,13.7850149 C27.9953186,14.9565878 27.9953186,16.8560827 26.8237458,18.0276556 C26.5525226,18.2988788 26.2318038,18.5155738 25.8789644,18.6660012 L12.3833992,24.4196173 L12.382,24.4178921 L8.24600128,28.5535714 C6.35959821,30.4399745 3.30112883,30.4399745 1.4148023,28.5535714 C-0.471600765,26.6671684 -0.471600765,23.608699 1.4148023,21.7223724 L5.5508227,17.586352 L11.2984312,4.08730838 C11.947503,2.56288329 13.7094703,1.85326923 15.2338954,2.502341 Z" id="Combined-Shape" fill="url(#linearGradient-2)" fill-rule="nonzero"></path>
                <path d="M26.9061011,17.5562919 C27.6861138,16.8634051 27.7567432,15.669384 27.0638563,14.8893713 C27.051626,14.8756031 27.0391949,14.8620144 27.0265672,14.8486097 L16.1850348,3.33998185 C15.0489363,2.13397758 13.1502869,2.07730772 11.9442826,3.21340619 C11.6427986,3.49741474 11.4033909,3.84077534 11.2411377,4.22186246 L11.1170472,4.51331633 L11.1170472,4.51331633 L24.0764039,17.4726731 C24.8488334,18.2451025 26.089408,18.281762 26.9061011,17.5562919 Z" id="Path" fill="url(#linearGradient-3)" fill-rule="nonzero"></path>
                <line x1="11.25" y1="4.43973183" x2="25.4518431" y2="18.8481122" id="Path-6" stroke="#4952A2" stroke-width="2"></line>
            </g>
            <path d="M12.3833992,24.4196173 L5.5508227,17.5862755 L10.7183313,5.4497445 C11.5837603,3.41717772 13.9330501,2.47102564 15.9656169,3.33645467 C16.4367421,3.53705098 16.8649703,3.82623942 17.2270461,4.18831526 L25.7771946,12.7384637 C27.3392918,14.3005609 27.3392918,16.8332208 25.7771946,18.395318 C25.4155637,18.7569489 24.9879386,19.0458756 24.5174861,19.2464454 L12.3833992,24.4196173 L12.3833992,24.4196173 Z" id="Path" stroke="#4952A2" stroke-width="2" fill-rule="nonzero"></path>
            <path d="M12.3820217,24.417551 L8.24600128,28.5535714 C6.35959821,30.4399745 3.30112883,30.4399745 1.4148023,28.5535714 L1.4148023,28.5535714 C-0.471600765,26.6671684 -0.471600765,23.608699 1.4148023,21.7223724 L5.5508227,17.586352 L12.3820217,24.417551 Z" id="Path" stroke="#4952A2" stroke-width="2" fill-rule="nonzero"></path>
            <polygon id="Path" stroke="#4952A2" stroke-width="2" fill-rule="nonzero" points="12.3833992 24.4196173 17.2241135 29.2602551 14.2844962 32.1998724 9.44202168 27.3574745"></polygon>
        </g>
        <path d="M25.4292887,10.0001004 L6.57738912,10.0001004 C5.15762343,10.0001004 4.00667782,11.151046 4.00667782,12.5708117 L4.00667782,26.2812887 C4.00667782,27.7010544 5.15762343,28.852 6.57738912,28.852 L9.61941423,28.852 L9.15327197,33.0422594 C9.10130544,33.5126695 9.44051883,33.9360837 9.91092887,33.9880502 C10.153841,34.0148619 10.3966527,33.9366862 10.5783096,33.773205 L16.047046,28.852 L25.4292887,28.852 C26.8490544,28.852 28,27.7010544 28,26.2812887 L28,12.5708117 C28,11.151046 26.8490544,10.0001004 25.4292887,10.0001004 Z" id="Path" stroke="#4952A2" stroke-width="2" fill="url(#linearGradient-4)" fill-rule="nonzero" transform="translate(16.003339, 21.996664) scale(-1, 1) translate(-16.003339, -21.996664) "></path>
        <line x1="10" y1="17" x2="22.5239198" y2="17" id="Path-7" stroke="#4952A2" stroke-width="2" stroke-linecap="round"></line>
        <line x1="10" y1="22" x2="17" y2="22" id="Path-7-Copy" stroke="#4952A2" stroke-width="2" stroke-linecap="round"></line>
    </g>
</svg>