<?xml version="1.0" encoding="UTF-8"?>
<svg width="72px" height="72px" viewBox="0 0 72 72" version="1.1" xmlns="http://www.w3.org/2000/svg" xmlns:xlink="http://www.w3.org/1999/xlink">
    <!-- Generator: Sketch 59.1 (86144) - https://sketch.com -->
    <title>illustrations/72/ecomm_web</title>
    <desc>Created with Sketch.</desc>
    <defs>
        <linearGradient x1="40.6050898%" y1="24.8683815%" x2="68.6979782%" y2="100.030944%" id="linearGradient-1">
            <stop stop-color="#0EB5A0" offset="0%"></stop>
            <stop stop-color="#4952A1" offset="100%"></stop>
        </linearGradient>
        <linearGradient x1="78.0458791%" y1="82.6013884%" x2="44.826871%" y2="34.2000521%" id="linearGradient-2">
            <stop stop-color="#FF5023" offset="0%"></stop>
            <stop stop-color="#FBBA3F" offset="100%"></stop>
        </linearGradient>
        <linearGradient x1="46.9250194%" y1="-18.3517658%" x2="56.2766546%" y2="125.702654%" id="linearGradient-3">
            <stop stop-color="#0EB5A0" offset="0%"></stop>
            <stop stop-color="#4952A1" offset="100%"></stop>
        </linearGradient>
        <linearGradient x1="30.6714893%" y1="43.9871844%" x2="72.453263%" y2="56.9848542%" id="linearGradient-4">
            <stop stop-color="#0EB5A0" offset="0%"></stop>
            <stop stop-color="#4952A1" offset="100%"></stop>
        </linearGradient>
        <linearGradient x1="20.8263109%" y1="8.83469062%" x2="100%" y2="91.1653094%" id="linearGradient-5">
            <stop stop-color="#0EB5A0" offset="0%"></stop>
            <stop stop-color="#4952A1" offset="100%"></stop>
        </linearGradient>
        <linearGradient x1="82.6195231%" y1="0.147515797%" x2="50%" y2="66.5449651%" id="linearGradient-6">
            <stop stop-color="#FF8E4A" offset="0%"></stop>
            <stop stop-color="#FF5524" offset="100%"></stop>
        </linearGradient>
    </defs>
    <g id="illustrations/72/ecomm_web" stroke="none" stroke-width="1" fill="none" fill-rule="evenodd">
        <rect id="Rectangle" x="0" y="0" width="72" height="72"></rect>
        <path d="M60.0216759,52 L11.9785375,52 C10.3335652,52 9,50.6599464 9,49.0069705 L9,14.9930295 C9,13.3400536 10.3335652,12 11.9785375,12 L60.0216759,12 C61.6664348,12 63,13.3400536 63,14.9930295 L63,49.0069705 C63,50.6599464 61.6664348,52 60.0216759,52" id="Fill-1" fill="#FCBB40"></path>
        <path d="M47.0435528,57.9683504 C45.2169071,57.9683504 43.5932929,56.805437 43.0052457,55.076374 L41.9516079,51.9803031 L37.1098913,51.9803031 L34.811915,51.9803031 L29.9699858,51.9803031 L28.9165606,55.076374 C28.3285134,56.805437 26.7048992,57.9683504 24.8782535,57.9683504 C23.7474425,57.9683504 22.8302929,58.8850748 22.8302929,60.016311 C22.8302929,61.1473346 23.7474425,62.0642717 24.8782535,62.0642717 L34.811915,62.0642717 L37.1098913,62.0642717 L47.0435528,62.0642717 C48.1743638,62.0642717 49.0915134,61.1473346 49.0915134,60.016311 C49.0915134,58.8850748 48.1743638,57.9683504 47.0435528,57.9683504" id="Fill-3" fill="#0FB5A0"></path>
        <path d="M36.4787717,62.064378 L37.1099764,62.064378 L47.0432126,62.064378 C48.1746614,62.064378 49.0915984,61.1472283 49.0915984,60.0162047 L49.0915984,60.0162047 C49.0915984,58.8851811 48.1746614,57.9682441 47.0432126,57.9682441 L47.0432126,57.9682441 C45.2169921,57.9682441 43.593378,56.8055433 43.0053307,55.0766929 L43.0053307,55.0766929 L42.2280709,52.7935984 L36.4787717,62.064378 Z" id="Fill-6" fill="url(#linearGradient-1)"></path>
        <path d="M44.9333908,12 L20,52 L59.991593,52 C61.6533736,52 63,50.6601609 63,49.0069705 L63,49.0069705 L63,14.9930295 C63,13.3400536 61.6533736,12 59.991593,12 L59.991593,12 L44.9333908,12 Z" id="Fill-11" fill="url(#linearGradient-2)"></path>
        <g id="shopping-bag" transform="translate(28.000000, 25.000000)">
            <polygon id="Path" fill="url(#linearGradient-3)" fill-rule="nonzero" points="16 15.2352941 12.2352941 15.2352941 12.1764706 14.4747059 11.2941176 -1.26859307e-15 15.0588235 -1.26859307e-15 15.9264706 14.2758824"></polygon>
            <polygon id="Path" fill="#0FB5A0" fill-rule="nonzero" points="12.2352941 15.2352941 0 15.2352941 0.941176471 4.86294012e-15 11.2941176 3.38291486e-15"></polygon>
            <g id="shopping-bag-copy" transform="translate(0.000000, 1.000000)" fill-rule="nonzero" stroke="#4952A2" stroke-width="2">
                <path d="M2.12736477,15.2352941 C1.02279527,15.2352941 0.127364771,14.3398636 0.127364771,13.2352941 C0.127364771,13.1941591 0.128633839,13.1530338 0.131170165,13.1119771 L0.825242388,1.87668296 C0.890395885,0.822010722 1.76475421,7.29953684e-15 2.82143699,7.10542736e-15 L13.1766873,7.10542736e-15 C14.2341378,6.68913225e-15 15.1088532,0.823166774 15.1730037,1.87866964 L15.9264706,14.2758824 C15.9640866,14.7666955 15.5966976,15.195072 15.1058844,15.232688 C15.0832227,15.2344248 15.0605029,15.2352941 15.0377747,15.2352941 L2.12736477,15.2352941 Z" id="Combined-Shape"></path>
            </g>
            <path d="M4,6.2 L4,9.11053939 C4,10.5854645 5.19566308,11.7811276 6.67058824,11.7811276 C8.14551339,11.7811276 9.34117647,10.5854645 9.34117647,9.11053939 L9.34117647,6.2 L9.34117647,6.2" id="Path-3" stroke="#4952A2" stroke-width="2" stroke-linecap="round" stroke-linejoin="round"></path>
        </g>
        <path d="M9.06711732,45.4960512 L9.06711732,49.0134921 C9.06711732,50.6519882 10.3954323,51.9803031 12.0339283,51.9803031 L59.8877079,51.9803031 C61.5262039,51.9803031 62.8545189,50.6519882 62.8545189,49.0134921 L62.8545189,45.4960512 L9.06711732,45.4960512 Z" id="Fill-14" fill="#0FB5A0"></path>
        <path d="M41.0953465,45.4959449 L37.0738346,51.9801969 L59.8875591,51.9801969 C61.5264803,51.9801969 62.8545827,50.6520945 62.8545827,49.0133858 L62.8545827,49.0133858 L62.8545827,45.4959449 L41.0953465,45.4959449 Z" id="Fill-19" fill="url(#linearGradient-4)"></path>
        <path d="M47.0435528,57.9683504 C45.2169071,57.9683504 43.5932929,56.805437 43.0052457,55.076374 L41.9516079,51.9803031 L37.1098913,51.9803031 L34.811915,51.9803031 L29.9699858,51.9803031 L28.9165606,55.076374 C28.3285134,56.805437 26.7048992,57.9683504 24.8782535,57.9683504 C23.7474425,57.9683504 22.8302929,58.8850748 22.8302929,60.016311 C22.8302929,61.1473346 23.7474425,62.0642717 24.8782535,62.0642717 L34.811915,62.0642717 L37.1098913,62.0642717 L47.0435528,62.0642717 C48.1743638,62.0642717 49.0915134,61.1473346 49.0915134,60.016311 C49.0915134,58.8850748 48.1743638,57.9683504 47.0435528,57.9683504 Z" id="Stroke-9" stroke="#4952A2" stroke-width="2"></path>
        <path d="M9.06711732,45.4960512 L9.06711732,49.0134921 C9.06711732,50.6519882 10.3954323,51.9803031 12.0339283,51.9803031 L59.8877079,51.9803031 C61.5262039,51.9803031 62.8545189,50.6519882 62.8545189,49.0134921 L62.8545189,45.4960512 L9.06711732,45.4960512 Z" id="Stroke-22" stroke="#4952A2" stroke-width="2"></path>
        <path d="M59.8878992,51.9803031 L12.0339071,51.9803031 C10.395411,51.9803031 9.06709606,50.6519882 9.06709606,49.0134921 L9.06709606,15.2975079 C9.06709606,13.6590118 10.395411,12.3306969 12.0339071,12.3306969 L59.8878992,12.3306969 C61.5261827,12.3306969 62.8544976,13.6590118 62.8544976,15.2975079 L62.8544976,49.0134921 C62.8544976,50.6519882 61.5261827,51.9803031 59.8878992,51.9803031 Z" id="Stroke-16" stroke="#4952A2" stroke-width="2"></path>
        <g id="Group-7" transform="translate(6.000000, 12.000000)" fill-rule="nonzero">
            <path d="M4.27907445,15.9101408 L4.27907445,15.9101408 C1.91577465,15.9101408 -4.97379915e-14,13.9943662 -4.97379915e-14,11.6310664 L-4.97379915e-14,8.14490946 L8.55802817,8.14490946 L8.55802817,11.6310664 C8.55802817,13.9943662 6.64225352,15.9101408 4.27907445,15.9101408 Z" id="Path" fill="url(#linearGradient-5)"></path>
            <path d="M12.8371026,15.9101408 L12.8371026,15.9101408 C10.4738028,15.9101408 8.55802817,13.9943662 8.55802817,11.6310664 L8.55802817,8.14490946 L17.1160563,8.14490946 L17.1160563,11.6310664 C17.1161771,13.9943662 15.2004024,15.9101408 12.8371026,15.9101408 Z" id="Path" fill="url(#linearGradient-6)"></path>
            <path d="M21.3952515,15.9101408 L21.3952515,15.9101408 C19.0319517,15.9101408 17.1161771,13.9943662 17.1161771,11.6310664 L17.1161771,8.14490946 L25.6742052,8.14490946 L25.6742052,11.6310664 C25.6742052,13.9943662 23.7584306,15.9101408 21.3952515,15.9101408 Z" id="Path" fill="url(#linearGradient-5)"></path>
            <path d="M29.9532797,15.9101408 L29.9532797,15.9101408 C27.5899799,15.9101408 25.6742052,13.9943662 25.6742052,11.6310664 L25.6742052,8.14490946 L34.2322334,8.14490946 L34.2322334,11.6310664 C34.2323541,13.9943662 32.3165795,15.9101408 29.9532797,15.9101408 Z" id="Path" fill="url(#linearGradient-6)"></path>
            <path d="M38.5114286,15.9101408 L38.5114286,15.9101408 C36.1481288,15.9101408 34.2323541,13.9943662 34.2323541,11.6310664 L34.2323541,8.14490946 L42.7903823,8.14490946 L42.7903823,11.6310664 C42.7903823,13.9943662 40.8746076,15.9101408 38.5114286,15.9101408 Z" id="Path" fill="url(#linearGradient-5)"></path>
            <path d="M47.0694567,15.9101408 L47.0694567,15.9101408 C44.7061569,15.9101408 42.7903823,13.9943662 42.7903823,11.6310664 L42.7903823,8.14490946 L51.3484105,8.14490946 L51.3484105,11.6310664 C51.3485312,13.9943662 49.4327565,15.9101408 47.0694567,15.9101408 Z" id="Path" fill="url(#linearGradient-6)"></path>
            <path d="M55.6274849,15.9101408 L55.6274849,15.9101408 C53.2641851,15.9101408 51.3484105,13.9943662 51.3484105,11.6310664 L51.3484105,8.14490946 L59.9064386,8.14490946 L59.9064386,11.6310664 C59.9065594,13.9943662 57.9907847,15.9101408 55.6274849,15.9101408 Z" id="Path" fill="url(#linearGradient-5)"></path>
            <polygon id="Path" fill="#0FB5A0" points="8.55802817 8.14503018 4.97379915e-14 8.14503018 4.09545272 3.55271368e-14 11.4834205 3.55271368e-14"></polygon>
            <polygon id="Path" fill="#FC9435" points="17.1161771 8.14503018 8.55802817 8.14503018 11.4834205 3.55271368e-14 18.8713883 3.55271368e-14"></polygon>
            <polygon id="Path" fill="#0FB5A0" points="25.6742052 8.14503018 17.1161771 8.14503018 18.8713883 3.55271368e-14 26.2593561 3.55271368e-14"></polygon>
            <polygon id="Path" fill="#FC9435" points="34.2323541 8.14503018 25.6742052 8.14503018 26.2593561 3.55271368e-14 33.6472032 3.55271368e-14"></polygon>
            <polygon id="Path" fill="#0FB5A0" points="42.7903823 8.14503018 34.2323541 8.14503018 33.6472032 3.55271368e-14 41.035171 3.55271368e-14"></polygon>
            <polygon id="Path" fill="#FC9435" points="51.3485312 8.14503018 42.7903823 8.14503018 41.035171 3.55271368e-14 48.4231388 3.55271368e-14"></polygon>
            <polygon id="Path" fill="#0FB5A0" points="59.9065594 8.14503018 51.3485312 8.14503018 48.4231388 3.55271368e-14 55.8111066 3.55271368e-14"></polygon>
        </g>
        <path d="M61.8111066,12 L65.905,20.144 L65.9064386,20.1449095 L65.9064386,23.6310664 C65.9065558,25.9248574 64.10182,27.7970611 61.8348126,27.9052065 L61.6274849,27.9101408 C59.2641851,27.9101408 57.3484105,25.9943662 57.3484105,23.6310664 C57.3485276,25.9248574 55.5437918,27.7970611 53.2767844,27.9052065 L53.0694567,27.9101408 C50.7061569,27.9101408 48.7903823,25.9943662 48.7903823,23.6310664 C48.7903823,25.9248574 46.985643,27.7970611 44.7187459,27.9052065 L44.5114286,27.9101408 C42.1481288,27.9101408 40.2323541,25.9943662 40.2323541,23.6310664 C40.2323506,25.9248574 38.4276148,27.7970611 36.1606074,27.9052065 L35.9532797,27.9101408 C33.5899799,27.9101408 31.6742052,25.9943662 31.6742052,23.6310664 C31.6742052,25.9248574 29.869466,27.7970611 27.6025689,27.9052065 L27.3952515,27.9101408 C25.0319517,27.9101408 23.1161771,25.9943662 23.1161771,23.6310664 C23.1161735,25.9248574 21.3114377,27.7970611 19.0444303,27.9052065 L18.8371026,27.9101408 C16.4738028,27.9101408 14.5580282,25.9943662 14.5580282,23.6310664 C14.5580282,25.9248574 12.7532889,27.7970611 10.4863918,27.9052065 L10.2790744,27.9101408 C7.91577465,27.9101408 6,25.9943662 6,23.6310664 L6,20.1449095 L6.001,20.144 L10.0954527,12 L61.8111066,12 Z" id="Combined-Shape" stroke="#4952A2" stroke-width="2" stroke-linejoin="round" fill-rule="nonzero"></path>
    </g>
</svg>