<?xml version="1.0" encoding="UTF-8"?>
<svg width="158px" height="156px" viewBox="0 0 158 156" version="1.1" xmlns="http://www.w3.org/2000/svg" xmlns:xlink="http://www.w3.org/1999/xlink">
    <!-- Generator: Sketch 59.1 (86144) - https://sketch.com -->
    <title>mbl-wwd-puzzle</title>
    <desc>Created with Sketch.</desc>
    <defs>
        <filter x="-147.4%" y="-151.3%" width="394.9%" height="402.6%" filterUnits="objectBoundingBox" id="filter-1">
            <feOffset dx="0" dy="20" in="SourceAlpha" result="shadowOffsetOuter1"></feOffset>
            <feGaussianBlur stdDeviation="20" in="shadowOffsetOuter1" result="shadowBlurOuter1"></feGaussianBlur>
            <feColorMatrix values="0 0 0 0 0.108462968   0 0 0 0 0.302973681   0 0 0 0 0.521257926  0 0 0 0.2 0" type="matrix" in="shadowBlurOuter1" result="shadowMatrixOuter1"></feColorMatrix>
            <feMerge>
                <feMergeNode in="shadowMatrixOuter1"></feMergeNode>
                <feMergeNode in="SourceGraphic"></feMergeNode>
            </feMerge>
        </filter>
    </defs>
    <g id="Mobile-Responsive" stroke="none" stroke-width="1" fill="none" fill-rule="evenodd">
        <g id="what_we_do" transform="translate(-155.000000, -4102.000000)">
            <g id="mbl-wwd-puzzle" filter="url(#filter-1)" transform="translate(195.000000, 4122.000000)">
                <rect id="Rectangle" fill="#FCA500" x="0" y="0" width="78" height="76" rx="8"></rect>
                <g id="plan" transform="translate(17.000000, 18.000000)" fill="#FFFFFF" fill-rule="nonzero">
                    <path d="M39.4000625,29.293162 L45,23.6244371 L39.4000625,17.9553646 L40.3023147,17.0419735 C41.8634033,15.4616123 41.8634033,12.8903537 40.3026581,11.3099925 C39.5463181,10.5446625 38.5407257,10.1230707 37.4712754,10.1230707 C36.4021683,10.1230707 35.3965759,10.5446625 34.6405792,11.3099925 L33.7383271,12.2233836 L28.1383896,6.55431107 L26.4859771,8.22747125 L26.4859771,10.8717177 C29.4090271,11.5769195 31.5894699,14.2430623 31.5894699,17.4149068 C31.5894699,20.5870988 29.4090271,23.2532416 26.4859771,23.958096 L26.4859771,32.1574148 L21.6382598,32.1574148 L20.6718064,33.1357998 L28.1383896,40.6942155 L33.7383271,35.0251431 L34.5159531,35.812717 C36.0770416,37.3930783 38.6169434,37.3930783 40.1780319,35.812717 C41.7391205,34.2323557 41.7391205,31.6610972 40.1780319,30.0807359 L39.4000625,29.293162 Z" id="Path"></path>
                    <path d="M23.8461685,29.4853635 L23.8461685,21.4681668 L24.9458313,21.4681668 C27.15374,21.4681668 28.9496612,19.6500736 28.9496612,17.4149068 C28.9496612,15.1800876 27.15374,13.3619944 24.9458313,13.3619944 L23.8461685,13.3619944 L23.8461685,5.34479773 L15.9267426,5.34479773 L15.9267426,4.05326 C15.9267426,1.81809322 14.1308213,-5.86197757e-14 11.9229126,-5.86197757e-14 C9.71534725,-5.86197757e-14 7.91942599,1.81809322 7.91942599,4.05326 L7.91942599,5.34479773 L1.15463195e-13,5.34479773 L1.15463195e-13,13.3619944 L1.1000061,13.3619944 C3.03703313,13.3619944 4.65682983,14.7616238 5.02487183,16.6144732 C5.18451688,16.840388 5.27961727,17.1163517 5.27961727,17.4149068 C5.27961727,17.713462 5.18451688,17.9894257 5.02487183,18.215688 C4.65682983,20.0681898 3.03703313,21.4681668 1.1000061,21.4681668 L1.15463195e-13,21.4681668 L1.15463195e-13,29.4853635 L7.91942599,29.4853635 L7.91942599,28.1934781 C7.91942599,25.9586589 9.71534725,24.1405656 11.9229126,24.1405656 C14.1308213,24.1405656 15.9267426,25.9586589 15.9267426,28.1934781 L15.9267426,29.4853635 L23.8461685,29.4853635 Z" id="Path"></path>
                </g>
            </g>
        </g>
    </g>
</svg>